<svg width="201" height="128" viewBox="0 0 201 128" fill="none" xmlns="http://www.w3.org/2000/svg">
<g clip-path="url(#clip0_265_116)">
<path d="M98.284 94.318C98.3893 94.3134 98.4991 94.2996 98.6044 94.295C98.9386 94.2674 99.2682 94.2351 99.5978 94.1937C99.6848 94.1845 99.7718 94.1707 99.8588 94.1615C101.109 93.9865 102.322 93.6964 103.484 93.3096C105.865 92.0156 107.486 89.483 107.486 86.5774C107.486 82.364 104.075 78.9334 99.8863 78.9334H72.8445C59.9851 78.9334 49.52 68.4069 49.52 55.472C49.52 54.6248 49.5658 53.7913 49.6528 52.967H21.0728C9.72419 52.967 0.495117 62.2503 0.495117 73.6656C0.495117 85.0808 9.72419 94.3641 21.0728 94.3641H26.0628C26.8227 94.3641 27.4362 94.9811 27.4362 95.7455C27.4362 102.496 31.4464 108.326 37.1963 110.941C35.9282 109.215 35.1774 107.078 35.1774 104.771C35.1774 99.0333 39.8194 94.3641 45.5235 94.3641H97.0205C97.4416 94.3641 97.8628 94.3456 98.2794 94.3226L98.284 94.318Z" fill="#ABABAB"/>
<path d="M50.1247 50.1995C50.3948 49.016 50.7565 47.8648 51.2005 46.7551C50.1201 44.0613 49.525 41.1188 49.525 38.0382C49.525 25.1034 59.9901 14.5768 72.8495 14.5768H143.478C138.355 6.14086 129.117 0.5 118.592 0.5H47.0255C30.9616 0.5 17.8916 13.6467 17.8916 29.8049C17.8916 37.7251 21.0366 44.9178 26.1319 50.1995H50.1247Z" fill="#727272"/>
<path d="M105.201 96.6018C103.974 96.8505 102.702 96.9794 101.406 96.9794H99.8908C99.8313 96.9794 99.7718 96.9702 99.7123 96.961C98.8287 97.0623 97.9361 97.1221 97.0251 97.1221H59.6738C62.5076 105.153 70.1298 110.918 79.0705 110.918H84.0604C84.8203 110.918 85.4338 111.535 85.4338 112.3C85.4338 119.05 89.444 124.88 95.1939 127.495C93.9258 125.769 93.175 123.632 93.175 121.325C93.175 115.587 97.817 110.918 103.521 110.918H130.563C137.379 110.918 143.427 107.566 147.172 102.418H120.542C114.668 102.418 109.303 100.217 105.197 96.6018H105.201Z" fill="#E4E4E4"/>
<path d="M179.922 17.3398H72.8492C61.5006 17.3398 52.2715 26.6231 52.2715 38.0383C52.2715 38.3653 52.2806 38.6876 52.2944 39.0099C52.299 39.1112 52.3081 39.2171 52.3127 39.3185C52.3264 39.5395 52.3402 39.7559 52.363 39.9723C52.3722 40.0921 52.3859 40.2072 52.3997 40.3223C52.4226 40.5295 52.45 40.7367 52.4775 40.9439C52.4912 41.0545 52.5095 41.1696 52.5233 41.2801C52.5645 41.5518 52.6148 41.8189 52.6652 42.0859C52.6881 42.2057 52.7155 42.3208 52.7384 42.4405C52.7842 42.6523 52.83 42.8595 52.8803 43.0667C52.8941 43.1312 52.9124 43.1911 52.9307 43.2555C57.0325 36.5141 64.4213 32.0014 72.8401 32.0014H124.332C137.192 32.0014 147.657 42.528 147.657 55.4628C147.657 56.5726 147.575 57.6639 147.423 58.7322H151.365C152.125 58.7322 152.738 59.3493 152.738 60.1137C152.738 66.8643 156.749 72.6939 162.499 75.3095C161.23 73.5827 160.48 71.446 160.48 69.139C160.48 63.4015 165.122 58.7322 170.826 58.7322H179.913C191.262 58.7322 200.491 49.449 200.491 38.0337C200.491 26.6185 191.262 17.3352 179.913 17.3352L179.922 17.3398Z" fill="#E4E4E4"/>
<path d="M182.788 61.3154C181.849 61.4305 180.893 61.4996 179.922 61.4996H170.835C166.646 61.4996 163.236 64.9302 163.236 69.1435C163.236 73.3569 166.646 76.7875 170.835 76.7875C171.595 76.7875 172.208 77.4045 172.208 78.1689C172.208 78.9333 171.595 79.5503 170.835 79.5503H169.32C159.129 79.5503 150.756 71.5703 150.047 61.4996H146.879C144.223 71.5196 135.127 78.9287 124.342 78.9287H120.679C120.144 86.5588 115.209 92.9871 108.415 95.6533C111.821 98.1629 116.014 99.6548 120.547 99.6548H147.588C147.794 99.6548 148 99.6641 148.206 99.6733C148.22 99.6733 148.234 99.6733 148.247 99.6733C148.444 99.6871 148.641 99.7055 148.833 99.7285C153.956 100.35 157.934 104.743 157.934 110.057C157.934 112.364 157.184 114.501 155.915 116.227C161.665 113.607 165.676 107.782 165.676 101.032C165.676 100.267 166.289 99.6502 167.049 99.6502H172.039C183.388 99.6502 192.617 90.367 192.617 78.9517C192.617 71.5012 188.68 64.9578 182.788 61.3108V61.3154Z" fill="#727272"/>
<path d="M20.0706 65.8742H51.9467C51.5072 64.9855 51.1226 64.0599 50.7976 63.1113H20.0706C19.3107 63.1113 18.6973 63.7284 18.6973 64.4928C18.6973 65.2572 19.3107 65.8742 20.0706 65.8742Z" fill="white"/>
<path d="M68.9398 28.87H183.827C184.587 28.87 185.201 28.253 185.201 27.4886C185.201 26.7242 184.587 26.1072 183.827 26.1072H68.9398C68.1798 26.1072 67.5664 26.7242 67.5664 27.4886C67.5664 28.253 68.1798 28.87 68.9398 28.87Z" fill="white"/>
<path d="M183.827 44.3008H144.846C145.326 45.1895 145.743 46.1105 146.109 47.0637H183.827C184.587 47.0637 185.2 46.4466 185.2 45.6822C185.2 44.9178 184.587 44.3008 183.827 44.3008Z" fill="white"/>
<path d="M20.0706 74.9733H59.8985C58.6899 74.1583 57.5592 73.2327 56.5246 72.2104H20.0706C19.3107 72.2104 18.6973 72.8275 18.6973 73.5919C18.6973 74.3563 19.3107 74.9733 20.0706 74.9733Z" fill="white"/>
<path d="M183.827 35.2063H136.075C137.426 36.0029 138.694 36.9285 139.852 37.9692H183.827C184.587 37.9692 185.201 37.3521 185.201 36.5877C185.201 35.8233 184.587 35.2063 183.827 35.2063Z" fill="white"/>
<path d="M90.8635 81.3047H20.0706C19.3107 81.3047 18.6973 81.9217 18.6973 82.6861C18.6973 83.4505 19.3107 84.0676 20.0706 84.0676H90.8635C91.6235 84.0676 92.2369 83.4505 92.2369 82.6861C92.2369 81.9217 91.6235 81.3047 90.8635 81.3047Z" fill="white"/>
<path d="M119.352 76.1658H124.342C135.69 76.1658 144.919 66.8826 144.919 55.4673C144.919 44.052 135.69 34.7688 124.342 34.7688H72.8492C61.5006 34.7688 52.2715 44.052 52.2715 55.4673C52.2715 66.8826 61.5006 76.1658 72.8492 76.1658H99.891C105.595 76.1658 110.237 80.8351 110.237 86.5726C110.237 88.8796 109.486 91.0163 108.218 92.7431C113.968 90.1229 117.978 84.2979 117.978 77.5473C117.978 76.7829 118.592 76.1658 119.352 76.1658Z" fill="url(#paint0_linear_265_116)"/>
<path d="M77.5055 49.2141H80.9664L83.2462 57.9908H83.2966L87.6731 49.2141H90.9463L82.8479 64.5803C82.5321 65.1789 82.2116 65.6992 81.8774 66.1505C81.5432 66.5972 81.1724 66.9748 80.765 67.2833C80.353 67.5918 79.8906 67.8174 79.3779 67.9694C78.8606 68.1168 78.2563 68.195 77.5559 68.195C76.7181 68.195 75.9307 68.0891 75.1982 67.8773L75.9856 65.0316C76.2283 65.119 76.4801 65.1927 76.7318 65.2572C76.9836 65.3171 77.2492 65.3493 77.533 65.3493C77.9175 65.3493 78.2426 65.3124 78.5172 65.2434C78.7873 65.1743 79.0254 65.0638 79.2222 64.9118C79.4191 64.7599 79.6068 64.5711 79.7716 64.3316C79.9364 64.0968 80.1058 63.8067 80.2843 63.4751L81.0946 61.974L77.5055 49.2187V49.2141Z" fill="white"/>
<path d="M91.2851 55.5363C91.427 54.5371 91.7291 53.6254 92.2006 52.8103C92.6722 51.9953 93.2581 51.2953 93.954 50.7151C94.6544 50.1349 95.4418 49.6883 96.3253 49.3705C97.2089 49.0528 98.1199 48.8962 99.0629 48.8962C100.006 48.8962 100.871 49.0528 101.659 49.3705C102.446 49.6883 103.105 50.1349 103.636 50.7151C104.167 51.2953 104.556 51.9953 104.804 52.8103C105.046 53.6254 105.101 54.5371 104.959 55.5363C104.817 56.5402 104.515 57.4473 104.044 58.2624C103.572 59.0774 102.991 59.7774 102.3 60.3576C101.608 60.9378 100.821 61.3844 99.9419 61.7022C99.0584 62.0199 98.1474 62.1764 97.2043 62.1764C96.2613 62.1764 95.3914 62.0199 94.5949 61.7022C93.7983 61.3844 93.1345 60.9378 92.6035 60.3576C92.0725 59.7774 91.6833 59.0774 91.4361 58.2624C91.1889 57.4473 91.1386 56.5356 91.2805 55.5363H91.2851ZM94.4301 55.5363C94.3614 56.0291 94.3797 56.5033 94.4804 56.9592C94.5857 57.4151 94.7734 57.8203 95.0435 58.1703C95.3136 58.5202 95.6615 58.8011 96.0919 59.013C96.5176 59.2248 97.0212 59.3307 97.598 59.3307C98.1748 59.3307 98.7059 59.2248 99.1957 59.013C99.6855 58.8011 100.111 58.5202 100.478 58.1703C100.844 57.8203 101.141 57.4151 101.37 56.9592C101.599 56.5033 101.746 56.0291 101.814 55.5363C101.883 55.0436 101.869 54.5693 101.764 54.1135C101.659 53.6576 101.471 53.2524 101.201 52.9024C100.931 52.5524 100.578 52.2715 100.152 52.0597C99.7222 51.8479 99.2232 51.742 98.6463 51.742C98.0695 51.742 97.5431 51.8479 97.0624 52.0597C96.5817 52.2715 96.1605 52.5524 95.7897 52.9024C95.4235 53.2524 95.1213 53.6576 94.8879 54.1135C94.6498 54.5693 94.4988 55.0436 94.4301 55.5363Z" fill="white"/>
<path d="M118.514 61.8635H115.525L115.786 59.8328H115.735C115.369 60.4636 114.843 61.0162 114.165 61.4813C113.488 61.9464 112.618 62.1812 111.57 62.1812C110.732 62.1812 110.036 62.0431 109.487 61.7714C108.937 61.4997 108.511 61.1313 108.214 60.6662C107.916 60.2012 107.729 59.667 107.651 59.073C107.573 58.4744 107.578 57.8527 107.665 57.2034L108.791 49.2188H111.936L111.043 55.624C110.993 55.974 110.952 56.3654 110.924 56.7982C110.897 57.2311 110.933 57.6317 111.029 58.0093C111.125 58.3869 111.309 58.7046 111.579 58.9579C111.849 59.2111 112.265 59.3401 112.824 59.3401C113.346 59.3401 113.804 59.2526 114.188 59.0776C114.573 58.9026 114.898 58.6632 115.172 58.3639C115.442 58.0645 115.662 57.7238 115.827 57.337C115.992 56.9502 116.102 56.545 116.157 56.1259L117.127 49.2188H120.272L118.519 61.8727L118.514 61.8635Z" fill="white"/>
</g>
<defs>
<linearGradient id="paint0_linear_265_116" x1="71.1783" y1="83.0454" x2="126.329" y2="28.212" gradientUnits="userSpaceOnUse">
<stop stop-color="#5C0000"/>
<stop offset="1" stop-color="#9E2A2F"/>
</linearGradient>
<clipPath id="clip0_265_116">
<rect width="200" height="127" fill="white" transform="translate(0.5 0.5)"/>
</clipPath>
</defs>
</svg>
