<svg width="71" height="54" viewBox="0 0 71 54" fill="none" xmlns="http://www.w3.org/2000/svg">
<path d="M33.3638 0C29.3758 10.35 23.9636 26.7 22.5393 35.4L31.7971 37.65C30.8001 42.15 26.8121 50.25 23.3938 53.7C16.9846 53.1 4.87817 49.35 0.462891 46.5C3.88117 30.6 10.8602 14.1 17.2694 2.85C21.5423 1.05 27.097 0 33.3638 0ZM70.5376 0C66.692 10.35 61.1373 26.7 59.713 35.4L68.9709 37.65C67.9739 42.15 63.9859 50.25 60.71 53.7C54.1583 53.1 42.0519 49.35 37.6367 46.5C41.0549 30.6 48.0339 14.1 54.4432 2.7C58.716 1.05 64.2707 0 70.5376 0Z" fill="white" fill-opacity="0.35"/>
</svg>
